<mxfile host="65bd71144e">
    <diagram name="PÃ¡gina-1" id="nb3_gkNf4HorEFQ1ZqfI">
        <mxGraphModel dx="976" dy="543" grid="1" gridSize="10" guides="1" tooltips="1" connect="1" arrows="1" fold="1" page="1" pageScale="1" pageWidth="827" pageHeight="1169" background="#ffffff" math="0" shadow="0">
            <root>
                <mxCell id="0"/>
                <mxCell id="1" parent="0"/>
                <mxCell id="4MBILseLXls8BSwajLAR-1" value="User" style="swimlane;whiteSpace=wrap;html=1;swimlaneFillColor=default;" parent="1" vertex="1">
                    <mxGeometry x="80" y="20" width="204" height="370" as="geometry"/>
                </mxCell>
                <mxCell id="4MBILseLXls8BSwajLAR-5" value="id:UUID" style="text;html=1;align=center;verticalAlign=middle;resizable=0;points=[];autosize=1;strokeColor=none;fillColor=none;" parent="4MBILseLXls8BSwajLAR-1" vertex="1">
                    <mxGeometry x="65" y="30" width="70" height="30" as="geometry"/>
                </mxCell>
                <mxCell id="4MBILseLXls8BSwajLAR-43" value="name:string" style="text;html=1;align=center;verticalAlign=middle;resizable=0;points=[];autosize=1;strokeColor=none;fillColor=none;" parent="4MBILseLXls8BSwajLAR-1" vertex="1">
                    <mxGeometry x="55" y="60" width="90" height="30" as="geometry"/>
                </mxCell>
                <mxCell id="4MBILseLXls8BSwajLAR-44" value="email:string" style="text;html=1;align=center;verticalAlign=middle;resizable=0;points=[];autosize=1;strokeColor=none;fillColor=none;" parent="4MBILseLXls8BSwajLAR-1" vertex="1">
                    <mxGeometry x="55" y="95" width="80" height="30" as="geometry"/>
                </mxCell>
                <mxCell id="ub87wvxo2J0YSXUC_f9o-1" value="password:string" style="text;html=1;align=center;verticalAlign=middle;resizable=0;points=[];autosize=1;strokeColor=none;fillColor=none;" parent="4MBILseLXls8BSwajLAR-1" vertex="1">
                    <mxGeometry x="40" y="130" width="110" height="30" as="geometry"/>
                </mxCell>
                <mxCell id="ub87wvxo2J0YSXUC_f9o-9" value="phone:number" style="text;html=1;align=center;verticalAlign=middle;resizable=0;points=[];autosize=1;strokeColor=none;fillColor=none;" parent="4MBILseLXls8BSwajLAR-1" vertex="1">
                    <mxGeometry x="45" y="170" width="100" height="30" as="geometry"/>
                </mxCell>
                <mxCell id="ub87wvxo2J0YSXUC_f9o-10" value="country:string" style="text;html=1;align=center;verticalAlign=middle;resizable=0;points=[];autosize=1;strokeColor=none;fillColor=none;" parent="4MBILseLXls8BSwajLAR-1" vertex="1">
                    <mxGeometry x="45" y="210" width="100" height="30" as="geometry"/>
                </mxCell>
                <mxCell id="ub87wvxo2J0YSXUC_f9o-11" value="address:string" style="text;html=1;align=center;verticalAlign=middle;resizable=0;points=[];autosize=1;strokeColor=none;fillColor=none;" parent="4MBILseLXls8BSwajLAR-1" vertex="1">
                    <mxGeometry x="45" y="250" width="100" height="30" as="geometry"/>
                </mxCell>
                <mxCell id="ub87wvxo2J0YSXUC_f9o-12" value="city:string" style="text;html=1;align=center;verticalAlign=middle;resizable=0;points=[];autosize=1;strokeColor=none;fillColor=none;" parent="4MBILseLXls8BSwajLAR-1" vertex="1">
                    <mxGeometry x="65" y="290" width="70" height="30" as="geometry"/>
                </mxCell>
                <mxCell id="ub87wvxo2J0YSXUC_f9o-13" value="isAdmin:boolean" style="text;html=1;align=center;verticalAlign=middle;resizable=0;points=[];autosize=1;strokeColor=none;fillColor=none;" parent="4MBILseLXls8BSwajLAR-1" vertex="1">
                    <mxGeometry x="47" y="330" width="110" height="30" as="geometry"/>
                </mxCell>
                <mxCell id="4MBILseLXls8BSwajLAR-7" value="Orden de compra" style="swimlane;whiteSpace=wrap;html=1;startSize=23;swimlaneFillColor=default;" parent="1" vertex="1">
                    <mxGeometry x="340" y="20" width="200" height="200" as="geometry"/>
                </mxCell>
                <mxCell id="4MBILseLXls8BSwajLAR-8" value="user_id:UUID" style="text;html=1;align=center;verticalAlign=middle;resizable=0;points=[];autosize=1;strokeColor=none;fillColor=none;" parent="4MBILseLXls8BSwajLAR-7" vertex="1">
                    <mxGeometry x="44" y="110" width="100" height="30" as="geometry"/>
                </mxCell>
                <mxCell id="4MBILseLXls8BSwajLAR-9" value="date:date" style="text;html=1;align=center;verticalAlign=middle;resizable=0;points=[];autosize=1;strokeColor=none;fillColor=none;" parent="4MBILseLXls8BSwajLAR-7" vertex="1">
                    <mxGeometry x="65" y="70" width="70" height="30" as="geometry"/>
                </mxCell>
                <mxCell id="4MBILseLXls8BSwajLAR-10" value="id:UUID" style="text;html=1;align=center;verticalAlign=middle;resizable=0;points=[];autosize=1;strokeColor=none;fillColor=none;" parent="4MBILseLXls8BSwajLAR-7" vertex="1">
                    <mxGeometry x="65" y="30" width="70" height="30" as="geometry"/>
                </mxCell>
                <mxCell id="4MBILseLXls8BSwajLAR-48" value="order_detail_id:UUID" style="text;html=1;align=center;verticalAlign=middle;resizable=0;points=[];autosize=1;strokeColor=none;fillColor=none;" parent="4MBILseLXls8BSwajLAR-7" vertex="1">
                    <mxGeometry x="24" y="150" width="140" height="30" as="geometry"/>
                </mxCell>
                <mxCell id="4MBILseLXls8BSwajLAR-31" value="Productos" style="swimlane;whiteSpace=wrap;html=1;swimlaneFillColor=default;" parent="1" vertex="1">
                    <mxGeometry x="600" y="280" width="200" height="320" as="geometry"/>
                </mxCell>
                <mxCell id="4MBILseLXls8BSwajLAR-32" value="name:string" style="text;html=1;align=center;verticalAlign=middle;resizable=0;points=[];autosize=1;strokeColor=none;fillColor=none;" parent="4MBILseLXls8BSwajLAR-31" vertex="1">
                    <mxGeometry x="50" y="70" width="90" height="30" as="geometry"/>
                </mxCell>
                <mxCell id="4MBILseLXls8BSwajLAR-27" value="description:string" style="text;html=1;align=center;verticalAlign=middle;resizable=0;points=[];autosize=1;strokeColor=none;fillColor=none;" parent="4MBILseLXls8BSwajLAR-31" vertex="1">
                    <mxGeometry x="45" y="110" width="110" height="30" as="geometry"/>
                </mxCell>
                <mxCell id="4MBILseLXls8BSwajLAR-34" value="id:UUID" style="text;html=1;align=center;verticalAlign=middle;resizable=0;points=[];autosize=1;strokeColor=none;fillColor=none;" parent="4MBILseLXls8BSwajLAR-31" vertex="1">
                    <mxGeometry x="60" y="30" width="70" height="30" as="geometry"/>
                </mxCell>
                <mxCell id="4MBILseLXls8BSwajLAR-36" value="price:number" style="text;html=1;align=center;verticalAlign=middle;resizable=0;points=[];autosize=1;strokeColor=none;fillColor=none;" parent="4MBILseLXls8BSwajLAR-31" vertex="1">
                    <mxGeometry x="55" y="150" width="90" height="30" as="geometry"/>
                </mxCell>
                <mxCell id="4MBILseLXls8BSwajLAR-51" value="stock:number" style="text;html=1;align=center;verticalAlign=middle;resizable=0;points=[];autosize=1;strokeColor=none;fillColor=none;" parent="4MBILseLXls8BSwajLAR-31" vertex="1">
                    <mxGeometry x="50" y="190" width="100" height="30" as="geometry"/>
                </mxCell>
                <mxCell id="ub87wvxo2J0YSXUC_f9o-14" value="imgUrl:string" style="text;html=1;align=center;verticalAlign=middle;resizable=0;points=[];autosize=1;strokeColor=none;fillColor=none;" parent="4MBILseLXls8BSwajLAR-31" vertex="1">
                    <mxGeometry x="50" y="230" width="90" height="30" as="geometry"/>
                </mxCell>
                <mxCell id="ub87wvxo2J0YSXUC_f9o-15" value="category_id:UUID" style="text;html=1;align=center;verticalAlign=middle;resizable=0;points=[];autosize=1;strokeColor=none;fillColor=none;" parent="4MBILseLXls8BSwajLAR-31" vertex="1">
                    <mxGeometry x="35" y="270" width="120" height="30" as="geometry"/>
                </mxCell>
                <mxCell id="4MBILseLXls8BSwajLAR-23" value="Detalle de compra" style="swimlane;whiteSpace=wrap;html=1;swimlaneFillColor=default;" parent="1" vertex="1">
                    <mxGeometry x="340" y="280" width="200" height="180" as="geometry"/>
                </mxCell>
                <mxCell id="4MBILseLXls8BSwajLAR-20" value="id:UUID" style="text;html=1;align=center;verticalAlign=middle;resizable=0;points=[];autosize=1;strokeColor=none;fillColor=none;" parent="4MBILseLXls8BSwajLAR-23" vertex="1">
                    <mxGeometry x="65" y="50" width="70" height="30" as="geometry"/>
                </mxCell>
                <mxCell id="4MBILseLXls8BSwajLAR-35" value="price:number" style="text;html=1;align=center;verticalAlign=middle;resizable=0;points=[];autosize=1;strokeColor=none;fillColor=none;" parent="4MBILseLXls8BSwajLAR-23" vertex="1">
                    <mxGeometry x="55" y="90" width="90" height="30" as="geometry"/>
                </mxCell>
                <mxCell id="4MBILseLXls8BSwajLAR-28" value="order_id:UUID" style="text;html=1;align=center;verticalAlign=middle;resizable=0;points=[];autosize=1;strokeColor=none;fillColor=none;" parent="4MBILseLXls8BSwajLAR-23" vertex="1">
                    <mxGeometry x="50" y="130" width="100" height="30" as="geometry"/>
                </mxCell>
                <mxCell id="Xencq1HuFVrwVAgW_7Y9-1" value="Categories" style="swimlane;whiteSpace=wrap;html=1;swimlaneFillColor=default;" parent="1" vertex="1">
                    <mxGeometry x="590" y="20" width="200" height="130" as="geometry"/>
                </mxCell>
                <mxCell id="Xencq1HuFVrwVAgW_7Y9-2" value="id:UUID" style="text;html=1;align=center;verticalAlign=middle;resizable=0;points=[];autosize=1;strokeColor=none;fillColor=none;" parent="Xencq1HuFVrwVAgW_7Y9-1" vertex="1">
                    <mxGeometry x="65" y="40" width="70" height="30" as="geometry"/>
                </mxCell>
                <mxCell id="Xencq1HuFVrwVAgW_7Y9-5" value="name:string" style="text;html=1;align=center;verticalAlign=middle;resizable=0;points=[];autosize=1;strokeColor=none;fillColor=none;" parent="Xencq1HuFVrwVAgW_7Y9-1" vertex="1">
                    <mxGeometry x="55" y="80" width="90" height="30" as="geometry"/>
                </mxCell>
            </root>
        </mxGraphModel>
    </diagram>
</mxfile>